# Tiled2Unity generated file. Do not modify by hand.
# Wavefront file for 'test_area_mesh_0003.obj'

# Vertices (Count = 140)
v -320 -32 0
v -336 -32 0
v -336 -16 0
v -320 -16 0
v -320 -48 0
v -336 -48 0
v -336 -32 0
v -320 -32 0
v -288 -48 0
v -304 -48 0
v -304 -32 0
v -288 -32 0
v -352 -64 0
v -368 -64 0
v -368 -48 0
v -352 -48 0
v -288 -64 0
v -304 -64 0
v -304 -48 0
v -288 -48 0
v -352 -80 0
v -368 -80 0
v -368 -64 0
v -352 -64 0
v -320 -112 0
v -336 -112 0
v -336 -96 0
v -320 -96 0
v -320 -128 0
v -336 -128 0
v -336 -112 0
v -320 -112 0
v -240 -176 0
v -256 -176 0
v -256 -160 0
v -240 -160 0
v -288 -192 0
v -304 -192 0
v -304 -176 0
v -288 -176 0
v -272 -192 0
v -288 -192 0
v -288 -176 0
v -272 -176 0
v -256 -192 0
v -272 -192 0
v -272 -176 0
v -256 -176 0
v -240 -192 0
v -256 -192 0
v -256 -176 0
v -240 -176 0
v -80 -320 0
v -96 -320 0
v -96 -304 0
v -80 -304 0
v -64 -320 0
v -80 -320 0
v -80 -304 0
v -64 -304 0
v -80 -336 0
v -96 -336 0
v -96 -320 0
v -80 -320 0
v -64 -336 0
v -80 -336 0
v -80 -320 0
v -64 -320 0
v -160 -352 0
v -176 -352 0
v -176 -336 0
v -160 -336 0
v -144 -352 0
v -160 -352 0
v -160 -336 0
v -144 -336 0
v -48 -352 0
v -64 -352 0
v -64 -336 0
v -48 -336 0
v -32 -352 0
v -48 -352 0
v -48 -336 0
v -32 -336 0
v -160 -368 0
v -176 -368 0
v -176 -352 0
v -160 -352 0
v -144 -368 0
v -160 -368 0
v -160 -352 0
v -144 -352 0
v -48 -368 0
v -64 -368 0
v -64 -352 0
v -48 -352 0
v -32 -368 0
v -48 -368 0
v -48 -352 0
v -32 -352 0
v -160 -384 0
v -176 -384 0
v -176 -368 0
v -160 -368 0
v -144 -384 0
v -160 -384 0
v -160 -368 0
v -144 -368 0
v -64 -384 0
v -80 -384 0
v -80 -368 0
v -64 -368 0
v -48 -384 0
v -64 -384 0
v -64 -368 0
v -48 -368 0
v -160 -400 0
v -176 -400 0
v -176 -384 0
v -160 -384 0
v -144 -400 0
v -160 -400 0
v -160 -384 0
v -144 -384 0
v -64 -400 0
v -80 -400 0
v -80 -384 0
v -64 -384 0
v -48 -400 0
v -64 -400 0
v -64 -384 0
v -48 -384 0
v -160 -416 0
v -176 -416 0
v -176 -400 0
v -160 -400 0
v -144 -416 0
v -160 -416 0
v -160 -400 0
v -144 -400 0

# Texture cooridinates (Count = 60)
vt 0.2283058 0.6463878
vt 0.2448347 0.6463878
vt 0.2448347 0.6768061
vt 0.2283058 0.6768061
vt 0.2283058 0.6140684
vt 0.2448347 0.6140684
vt 0.2448347 0.6444867
vt 0.2283058 0.6444867
vt 0.2283058 0.6787072
vt 0.2448347 0.6787072
vt 0.2448347 0.7091255
vt 0.2283058 0.7091255
vt 0.8254132 0.6463878
vt 0.8419421 0.6463878
vt 0.8419421 0.6768061
vt 0.8254132 0.6768061
vt 0.8078513 0.6463878
vt 0.8243802 0.6463878
vt 0.8243802 0.6768061
vt 0.8078513 0.6768061
vt 0.8254132 0.6140684
vt 0.8419421 0.6140684
vt 0.8419421 0.6444867
vt 0.8254132 0.6444867
vt 0.8078513 0.6140684
vt 0.8243802 0.6140684
vt 0.8243802 0.6444867
vt 0.8078513 0.6444867
vt 0.3688017 0.2908745
vt 0.3853306 0.2908745
vt 0.3853306 0.3212928
vt 0.3688017 0.3212928
vt 0.3512397 0.2908745
vt 0.3677686 0.2908745
vt 0.3677686 0.3212928
vt 0.3512397 0.3212928
vt 0.3688017 0.2585551
vt 0.3853306 0.2585551
vt 0.3853306 0.2889734
vt 0.3688017 0.2889734
vt 0.3512397 0.2585551
vt 0.3677686 0.2585551
vt 0.3677686 0.2889734
vt 0.3512397 0.2889734
vt 0.3688017 0.2262357
vt 0.3853306 0.2262357
vt 0.3853306 0.256654
vt 0.3688017 0.256654
vt 0.3512397 0.2262357
vt 0.3677686 0.2262357
vt 0.3677686 0.256654
vt 0.3512397 0.256654
vt 0.3336777 0.2262357
vt 0.3502066 0.2262357
vt 0.3502066 0.256654
vt 0.3336777 0.256654
vt 0.6673554 0.904943
vt 0.6838843 0.904943
vt 0.6838843 0.9353612
vt 0.6673554 0.9353612

# Normal
vn 0 0 -1

# Mesh description
g test_area_mesh_0003

# Faces
f 1/1/1 2/2/1 3/3/1 4/4/1
f 5/5/1 6/6/1 7/7/1 8/8/1
f 9/1/1 10/2/1 11/3/1 12/4/1
f 13/1/1 14/2/1 15/3/1 16/4/1
f 17/5/1 18/6/1 19/7/1 20/8/1
f 21/5/1 22/6/1 23/7/1 24/8/1
f 25/1/1 26/2/1 27/3/1 28/4/1
f 29/5/1 30/6/1 31/7/1 32/8/1
f 33/9/1 34/10/1 35/11/1 36/12/1
f 37/9/1 38/10/1 39/11/1 40/12/1
f 41/9/1 42/10/1 43/11/1 44/12/1
f 45/9/1 46/10/1 47/11/1 48/12/1
f 49/9/1 50/10/1 51/11/1 52/12/1
f 53/13/1 54/14/1 55/15/1 56/16/1
f 57/17/1 58/18/1 59/19/1 60/20/1
f 61/21/1 62/22/1 63/23/1 64/24/1
f 65/25/1 66/26/1 67/27/1 68/28/1
f 69/29/1 70/30/1 71/31/1 72/32/1
f 73/33/1 74/34/1 75/35/1 76/36/1
f 77/13/1 78/14/1 79/15/1 80/16/1
f 81/17/1 82/18/1 83/19/1 84/20/1
f 85/37/1 86/38/1 87/39/1 88/40/1
f 89/41/1 90/42/1 91/43/1 92/44/1
f 93/21/1 94/22/1 95/23/1 96/24/1
f 97/25/1 98/26/1 99/27/1 100/28/1
f 101/37/1 102/38/1 103/39/1 104/40/1
f 105/41/1 106/42/1 107/43/1 108/44/1
f 109/13/1 110/14/1 111/15/1 112/16/1
f 113/17/1 114/18/1 115/19/1 116/20/1
f 117/45/1 118/46/1 119/47/1 120/48/1
f 121/49/1 122/50/1 123/51/1 124/52/1
f 125/21/1 126/22/1 127/23/1 128/24/1
f 129/25/1 130/26/1 131/27/1 132/28/1
f 133/53/1 134/54/1 135/55/1 136/56/1
f 137/57/1 138/58/1 139/59/1 140/60/1

